<svg xmlns="http://www.w3.org/2000/svg" xmlns:xlink="http://www.w3.org/1999/xlink" width="620" height="220" viewBox="0 0 620 220"><defs><linearGradient id="a" x1="0.5" x2="0.5" y2="1" gradientUnits="objectBoundingBox"><stop offset="0" stop-color="#0094fe"/><stop offset="1" stop-color="#66bfff"/></linearGradient><clipPath id="c"><rect width="620" height="220"/></clipPath></defs><g id="b" clip-path="url(#c)"><path d="M69.73,107.334a50.5,50.5,0,0,0,10.71-5.092,21.538,21.538,0,0,1,5.443,13.87A111.923,111.923,0,0,1,67.8,122.784a201.251,201.251,0,0,0-2.107,24.053q0,8.076,2.809,8.076,4.389,0,11.061-7.9T92.2,125.242a94.025,94.025,0,0,0,7.374-27.916q0-17.206-14.923-32.129A53.135,53.135,0,0,1,94.748,51.5a57.588,57.588,0,0,1,10.446-8.6l4.214-2.282q7.9,0,13.607,9.042t5.706,21.946q0,12.9-7.374,32.042a181.027,181.027,0,0,1-18.259,35.465,126.782,126.782,0,0,1-24.58,27.652Q64.814,178.089,52.7,178.089t-16.767-7.023q-4.653-7.023-4.653-19.488,0-6.145,1.931-27.389-16.152-.878-25.633-10.973T-1.9,90.3q0-16.5,14.923-27.74T44.8,51.327q11.939,0,19.664,7.637t7.725,23.614Q72.188,89.074,69.73,107.334ZM37.249,83.456q0-15.8-8.252-15.8-5.618,0-11.149,6.847a24.426,24.426,0,0,0-5.53,15.8q0,8.954,6.408,14.309t16.065,5.355Q37.249,90.655,37.249,83.456Zm159.406,17.958q-6.491,51.295-6.491,54.62,0,6.333,4.591,6.333,4.116,0,8.945-5.62t7.678-16.861q5.224,5.7,6.333,8.866-3.641,15.357-11.557,21.69t-16.307,6.333q-13.774,0-18.523-10.607-8.233,10.607-22.006,10.607-11.4,0-17.573-5.7t-6.174-14.882a64.437,64.437,0,0,1,.792-7.758Q130,118.987,131.9,101.572a27.172,27.172,0,0,1,9.024-1.741,44.151,44.151,0,0,1,6.174.317,6.918,6.918,0,0,1,3.958,2.375,8.324,8.324,0,0,1,1.9,5.858l-5.225,40.371a21.318,21.318,0,0,0-.317,3.483q0,9.341,8.549,9.341,7.916,0,13.14-7.758,0-1.741.317-5.541l5.224-42.113a9.253,9.253,0,0,1,4.75-4.512,20.266,20.266,0,0,1,9.1-1.821Q193.964,99.831,196.655,101.414Zm39.1,39.1q9.816-2.058,14.644-7.916t4.829-11.32q0-5.462-2.929-7.441a11.216,11.216,0,0,0-6.412-1.979q-7.441,0-13.061,8.312t-5.62,19.79q0,11.478,5.462,17.1a18.118,18.118,0,0,0,13.536,5.62q11.874,0,22.8-8.233a61.568,61.568,0,0,0,17.732-21.531,36.884,36.884,0,0,1,6.333,8.233q-5.225,11.874-18.523,23.273a55.152,55.152,0,0,1-15.753,9.024,52.075,52.075,0,0,1-18.761,3.483q-15.832,0-25.014-9.657-9.816-10.449-9.816-26.756t12.27-28.5a40.2,40.2,0,0,1,29.368-12.19q12.19,0,19.79,5.3a17,17,0,0,1,7.758,14.328,23.942,23.942,0,0,1-9.737,19.79q-9.737,7.6-26.677,10.607Zm88.975,35.463,6.016-52.562a12.161,12.161,0,0,0-2.137-7.362q-2.137-2.929-7.52-2.929t-8.866,5.145a27.177,27.177,0,0,0-4.433,10.845q-5.541,39.421-6.174,46.862H280.405l8.707-74.409a43.708,43.708,0,0,1,10.132-1.741q9.974,0,10.924,6.649,7.758-6.649,16.94-6.649,18.365,0,23.431,10.924Q358.3,99.673,372.7,99.673q10.607,0,16.782,5.462a17.518,17.518,0,0,1,6.174,13.694,63.566,63.566,0,0,1-.95,8.391q-3.641,23.748-3.641,27.864,0,7.441,4.908,7.441,4.116,0,8.787-5.462t7.52-16.861q5.383,5.7,6.491,9.024-8.233,27.547-29.13,27.547-9.816,0-14.565-6.016a20.147,20.147,0,0,1-4.75-12.665l3.8-34.988a11.254,11.254,0,0,0-2.216-7.124q-2.216-2.85-7.045-2.85a11.616,11.616,0,0,0-8.47,3.641,19.615,19.615,0,0,0-5.066,9.341q-4.75,40.213-6.174,49.87Zm112.089-35.463q9.816-2.058,14.644-7.916t4.829-11.32q0-5.462-2.929-7.441a11.216,11.216,0,0,0-6.412-1.979q-7.441,0-13.061,8.312t-5.62,19.79q0,11.478,5.462,17.1a18.118,18.118,0,0,0,13.536,5.62q11.874,0,22.8-8.233A61.568,61.568,0,0,0,487.8,132.919a36.882,36.882,0,0,1,6.333,8.233q-5.224,11.874-18.523,23.273a55.152,55.152,0,0,1-15.753,9.024,52.075,52.075,0,0,1-18.761,3.483q-15.832,0-25.014-9.657-9.816-10.449-9.816-26.756t12.27-28.5a40.2,40.2,0,0,1,29.368-12.19q12.191,0,19.79,5.3a17,17,0,0,1,7.758,14.328,23.942,23.942,0,0,1-9.737,19.79q-9.737,7.6-26.677,10.607Zm89.45,17.732,3.8-35.3a11.254,11.254,0,0,0-2.216-7.124q-2.216-2.85-7.362-2.85a10.738,10.738,0,0,0-8.707,4.512,23.02,23.02,0,0,0-4.512,11.32q-5.7,43.379-6.016,47.179H479.885l8.707-74.568a43.708,43.708,0,0,1,10.132-1.741q10.607,0,11.082,7.758a25.64,25.64,0,0,1,18.6-7.6q10.845,0,17.019,5.383a17.284,17.284,0,0,1,6.174,13.615,67.485,67.485,0,0,1-.95,8.391q-3.641,24.064-3.641,28.022,0,7.283,4.908,7.283,10.766,0,16.307-22.481,5.383,5.7,6.491,9.024-8.391,27.864-29.13,27.864-9.816,0-14.565-6.016A20.147,20.147,0,0,1,526.273,158.25ZM599.1,65.793q0,.95-4.275,34.038H618.1v12.19H593.241l-.475,3.958q18.523,15.515,18.523,33.88,0,14.407-7.362,20.74a26.166,26.166,0,0,1-17.652,6.333q-10.291,0-15.04-5.462a19.455,19.455,0,0,1-4.75-13.22,25.112,25.112,0,0,1,.317-3.8l4.908-42.113-.633-.317H558.253q-.158-1.583-.158-5.145a18.464,18.464,0,0,1,1.425-7.045h13.615L578.2,56.768a25.465,25.465,0,0,1,8.866-1.267Q599.1,55.5,599.1,65.793Zm1.583,83.908q0-10.924-9.5-21.531-2.85,23.589-2.85,27.231,0,7.124,4.591,7.124a6.611,6.611,0,0,0,5.541-3.087Q600.682,156.35,600.682,149.7Z" transform="translate(1.903 -40.617)" fill="url(#a)"/><path d="M18.328,46.124c8.759,0,14.871-5.048,15.712-13.015H26.766a8.062,8.062,0,0,1-8.413,6.829c-5.716,0-9.3-4.7-9.3-12.322,0-7.522,3.637-12.248,9.279-12.248a8.272,8.272,0,0,1,8.413,7.25h7.275c-.569-7.992-7.1-13.436-15.687-13.436-10.343,0-16.9,6.953-16.9,18.459C1.428,39.171,7.936,46.124,18.328,46.124Zm31.87-.049c8.017,0,13.139-5.122,13.139-13.856,0-8.611-5.2-13.807-13.139-13.807S37.059,23.632,37.059,32.218C37.059,40.928,42.181,46.075,50.2,46.075Zm0-5.518c-3.563,0-5.815-2.994-5.815-8.314,0-5.27,2.3-8.314,5.815-8.314s5.79,3.043,5.79,8.314C55.988,37.563,53.736,40.557,50.2,40.557Zm16.85,4.949h7.225V29.5c0-2.969,1.856-5.048,4.6-5.048,2.672,0,4.281,1.683,4.281,4.528V45.505H90.11V29.4c0-2.944,1.806-4.949,4.553-4.949,2.8,0,4.33,1.683,4.33,4.751V45.505h7.225V27.393c0-5.345-3.489-8.908-8.685-8.908a8.4,8.4,0,0,0-8.24,5.444h-.148c-.891-3.464-3.563-5.444-7.4-5.444a7.787,7.787,0,0,0-7.572,5.3h-.148v-4.8H67.048ZM126.285,18.56a8.646,8.646,0,0,0-8.215,5.048h-.148V18.98H110.8V54.166h7.225V41.052h.148a8.692,8.692,0,0,0,8.24,4.875c6.631,0,10.739-5.147,10.739-13.683C137.147,23.682,133.015,18.56,126.285,18.56ZM123.86,40.111c-3.538,0-5.864-3.068-5.864-7.868,0-4.751,2.326-7.893,5.864-7.893,3.613,0,5.889,3.093,5.889,7.893C129.749,37.068,127.473,40.111,123.86,40.111Zm29.173,5.963c8.017,0,13.139-5.122,13.139-13.856,0-8.611-5.2-13.807-13.139-13.807s-13.139,5.221-13.139,13.807C139.894,40.928,145.016,46.075,153.033,46.075Zm0-5.518c-3.563,0-5.815-2.994-5.815-8.314,0-5.27,2.3-8.314,5.815-8.314s5.79,3.043,5.79,8.314C158.823,37.563,156.571,40.557,153.033,40.557Zm16.85,4.949h7.225V30.288c0-3.439,2.054-5.815,5.3-5.815s4.874,1.979,4.874,5.444V45.505H194.5v-17.1c0-6.211-3.316-9.922-9.2-9.922-4.083,0-6.879,1.93-8.289,5.221h-.148V18.98h-6.978Zm41.1-21.75c3.217,0,5.419,2.326,5.567,5.716H205.291C205.539,26.156,207.815,23.756,210.982,23.756Zm5.666,13.634c-.668,2.029-2.7,3.34-5.345,3.34-3.687,0-6.087-2.6-6.087-6.384V33.9H223.5V31.7c0-8.066-4.875-13.287-12.595-13.287-7.844,0-12.792,5.493-12.792,13.955,0,8.487,4.9,13.708,13.065,13.708,6.557,0,11.308-3.489,12.1-8.685Zm10.566,8.116h7.225V30.288c0-3.439,2.054-5.815,5.3-5.815s4.875,1.979,4.875,5.444V45.505h7.225v-17.1c0-6.211-3.316-9.922-9.2-9.922-4.083,0-6.879,1.93-8.289,5.221h-.148V18.98h-6.978Zm31.128-32.637V18.98h-3.736v5.444h3.736V38.355c0,5.171,2.425,7.25,8.66,7.25a16.61,16.61,0,0,0,3.439-.3v-5.32a11.694,11.694,0,0,1-1.757.124c-2.128,0-3.118-.965-3.118-2.994V24.424h4.9V18.98h-4.9V12.869ZM273.98,26.774c0,3.91,2.573,6.532,7.6,7.671l4.9,1.089c2.375.569,3.266,1.311,3.266,2.648,0,1.732-1.658,2.821-4.4,2.821-2.87,0-4.627-1.287-4.973-3.514h-7.052c.4,5.171,4.751,8.586,11.828,8.586,7,0,11.8-3.439,11.8-8.66,0-3.959-2.153-6.062-7.473-7.25L284.4,29.076c-2.326-.544-3.464-1.435-3.464-2.747,0-1.707,1.633-2.846,4.132-2.846,2.672,0,4.38,1.311,4.528,3.439h6.656c-.1-5.147-4.429-8.512-11.085-8.512C278.359,18.411,273.98,21.727,273.98,26.774Zm38.5,18.731h7.225V24.424h5.1V19.1h-5.27V17.347c0-1.881,1.039-2.92,3.415-2.92a11.231,11.231,0,0,1,1.955.148V9.8a21.021,21.021,0,0,0-3.687-.322c-6.285,0-8.735,2.425-8.735,7.621v2h-3.613v5.32h3.613Zm27.54.569c8.017,0,13.139-5.122,13.139-13.856,0-8.611-5.2-13.807-13.139-13.807s-13.139,5.221-13.139,13.807C326.882,40.928,332,46.075,340.021,46.075Zm0-5.518c-3.563,0-5.815-2.994-5.815-8.314,0-5.27,2.3-8.314,5.815-8.314s5.79,3.043,5.79,8.314C345.811,37.563,343.559,40.557,340.021,40.557Zm16.85,4.949H364.1V30.684c0-3.736,2.078-5.914,5.642-5.914a7.435,7.435,0,0,1,2.623.421V18.832a7.36,7.36,0,0,0-2.054-.272c-3.118,0-5.369,1.831-6.31,5.2h-.148V18.98h-6.978Zm47.8,0,12-35.705h-8.141l-8.165,28.01H400.2L392.032,9.8h-8.363l12,35.705ZM442.46,18.98h-7.225V34.173c0,3.514-2,5.815-5.221,5.815-3.192,0-4.949-1.881-4.949-5.419V18.98H417.84v17.1c0,6.186,3.811,9.922,9.551,9.922a7.882,7.882,0,0,0,7.943-5.27h.148v4.776h6.978Zm16.6,4.776c3.217,0,5.419,2.326,5.567,5.716H453.371C453.619,26.156,455.9,23.756,459.063,23.756Zm5.666,13.634c-.668,2.029-2.7,3.34-5.345,3.34-3.687,0-6.087-2.6-6.087-6.384V33.9h18.286V31.7c0-8.066-4.874-13.287-12.595-13.287-7.844,0-12.792,5.493-12.792,13.955,0,8.487,4.9,13.708,13.065,13.708,6.557,0,11.308-3.489,12.1-8.685ZM480,45.8a3.984,3.984,0,1,0-3.984-3.984A3.981,3.981,0,0,0,480,45.8ZM496.722,18.98H489.5V46.545c0,2.153-.94,3.019-3.34,3.019-.247,0-.742-.025-.916-.049v5.32c.322.049,1.41.1,1.979.1,6.211,0,9.5-2.821,9.5-8.19Zm-3.613-2.92a3.738,3.738,0,1,0-3.86-3.736A3.762,3.762,0,0,0,493.11,16.06Zm7.967,10.714c0,3.91,2.573,6.532,7.6,7.671l4.9,1.089c2.375.569,3.266,1.311,3.266,2.648,0,1.732-1.658,2.821-4.4,2.821-2.87,0-4.627-1.287-4.974-3.514h-7.052c.4,5.171,4.751,8.586,11.827,8.586,7,0,11.8-3.439,11.8-8.66,0-3.959-2.153-6.062-7.473-7.25l-5.072-1.089c-2.326-.544-3.464-1.435-3.464-2.747,0-1.707,1.633-2.846,4.132-2.846,2.672,0,4.38,1.311,4.528,3.439h6.656c-.1-5.147-4.429-8.512-11.085-8.512C505.457,18.411,501.077,21.727,501.077,26.774Z" transform="translate(47.266 165.412)" fill="gray"/></g></svg>