<svg xmlns="http://www.w3.org/2000/svg" xmlns:xlink="http://www.w3.org/1999/xlink" width="620" height="138" viewBox="0 0 620 138"><defs><linearGradient id="a" x1="0.5" x2="0.5" y2="1" gradientUnits="objectBoundingBox"><stop offset="0" stop-color="#0094fe"/><stop offset="1" stop-color="#66bfff"/></linearGradient><clipPath id="c"><rect width="620" height="138"/></clipPath></defs><g id="b" clip-path="url(#c)"><path d="M69.73,107.334a50.5,50.5,0,0,0,10.71-5.092,21.538,21.538,0,0,1,5.443,13.87A111.923,111.923,0,0,1,67.8,122.784a201.251,201.251,0,0,0-2.107,24.053q0,8.076,2.809,8.076,4.389,0,11.061-7.9T92.2,125.242a94.025,94.025,0,0,0,7.374-27.916q0-17.206-14.923-32.129A53.135,53.135,0,0,1,94.748,51.5a57.588,57.588,0,0,1,10.446-8.6l4.214-2.282q7.9,0,13.607,9.042t5.706,21.946q0,12.9-7.374,32.042a181.027,181.027,0,0,1-18.259,35.465,126.782,126.782,0,0,1-24.58,27.652Q64.814,178.089,52.7,178.089t-16.767-7.023q-4.653-7.023-4.653-19.488,0-6.145,1.931-27.389-16.152-.878-25.633-10.973T-1.9,90.3q0-16.5,14.923-27.74T44.8,51.327q11.939,0,19.664,7.637t7.725,23.614Q72.188,89.074,69.73,107.334ZM37.249,83.456q0-15.8-8.252-15.8-5.618,0-11.149,6.847a24.426,24.426,0,0,0-5.53,15.8q0,8.954,6.408,14.309t16.065,5.355Q37.249,90.655,37.249,83.456Zm159.406,17.958q-6.491,51.295-6.491,54.62,0,6.333,4.591,6.333,4.116,0,8.945-5.62t7.678-16.861q5.224,5.7,6.333,8.866-3.641,15.357-11.557,21.69t-16.307,6.333q-13.774,0-18.523-10.607-8.233,10.607-22.006,10.607-11.4,0-17.573-5.7t-6.174-14.882a64.437,64.437,0,0,1,.792-7.758Q130,118.987,131.9,101.572a27.172,27.172,0,0,1,9.024-1.741,44.151,44.151,0,0,1,6.174.317,6.918,6.918,0,0,1,3.958,2.375,8.324,8.324,0,0,1,1.9,5.858l-5.225,40.371a21.318,21.318,0,0,0-.317,3.483q0,9.341,8.549,9.341,7.916,0,13.14-7.758,0-1.741.317-5.541l5.224-42.113a9.253,9.253,0,0,1,4.75-4.512,20.266,20.266,0,0,1,9.1-1.821Q193.964,99.831,196.655,101.414Zm39.1,39.1q9.816-2.058,14.644-7.916t4.829-11.32q0-5.462-2.929-7.441a11.216,11.216,0,0,0-6.412-1.979q-7.441,0-13.061,8.312t-5.62,19.79q0,11.478,5.462,17.1a18.118,18.118,0,0,0,13.536,5.62q11.874,0,22.8-8.233a61.568,61.568,0,0,0,17.732-21.531,36.884,36.884,0,0,1,6.333,8.233q-5.225,11.874-18.523,23.273a55.152,55.152,0,0,1-15.753,9.024,52.075,52.075,0,0,1-18.761,3.483q-15.832,0-25.014-9.657-9.816-10.449-9.816-26.756t12.27-28.5a40.2,40.2,0,0,1,29.368-12.19q12.19,0,19.79,5.3a17,17,0,0,1,7.758,14.328,23.942,23.942,0,0,1-9.737,19.79q-9.737,7.6-26.677,10.607Zm88.975,35.463,6.016-52.562a12.161,12.161,0,0,0-2.137-7.362q-2.137-2.929-7.52-2.929t-8.866,5.145a27.177,27.177,0,0,0-4.433,10.845q-5.541,39.421-6.174,46.862H280.405l8.707-74.409a43.708,43.708,0,0,1,10.132-1.741q9.974,0,10.924,6.649,7.758-6.649,16.94-6.649,18.365,0,23.431,10.924Q358.3,99.673,372.7,99.673q10.607,0,16.782,5.462a17.518,17.518,0,0,1,6.174,13.694,63.566,63.566,0,0,1-.95,8.391q-3.641,23.748-3.641,27.864,0,7.441,4.908,7.441,4.116,0,8.787-5.462t7.52-16.861q5.383,5.7,6.491,9.024-8.233,27.547-29.13,27.547-9.816,0-14.565-6.016a20.147,20.147,0,0,1-4.75-12.665l3.8-34.988a11.254,11.254,0,0,0-2.216-7.124q-2.216-2.85-7.045-2.85a11.616,11.616,0,0,0-8.47,3.641,19.615,19.615,0,0,0-5.066,9.341q-4.75,40.213-6.174,49.87Zm112.089-35.463q9.816-2.058,14.644-7.916t4.829-11.32q0-5.462-2.929-7.441a11.216,11.216,0,0,0-6.412-1.979q-7.441,0-13.061,8.312t-5.62,19.79q0,11.478,5.462,17.1a18.118,18.118,0,0,0,13.536,5.62q11.874,0,22.8-8.233A61.568,61.568,0,0,0,487.8,132.919a36.882,36.882,0,0,1,6.333,8.233q-5.224,11.874-18.523,23.273a55.152,55.152,0,0,1-15.753,9.024,52.075,52.075,0,0,1-18.761,3.483q-15.832,0-25.014-9.657-9.816-10.449-9.816-26.756t12.27-28.5a40.2,40.2,0,0,1,29.368-12.19q12.191,0,19.79,5.3a17,17,0,0,1,7.758,14.328,23.942,23.942,0,0,1-9.737,19.79q-9.737,7.6-26.677,10.607Zm89.45,17.732,3.8-35.3a11.254,11.254,0,0,0-2.216-7.124q-2.216-2.85-7.362-2.85a10.738,10.738,0,0,0-8.707,4.512,23.02,23.02,0,0,0-4.512,11.32q-5.7,43.379-6.016,47.179H479.885l8.707-74.568a43.708,43.708,0,0,1,10.132-1.741q10.607,0,11.082,7.758a25.64,25.64,0,0,1,18.6-7.6q10.845,0,17.019,5.383a17.284,17.284,0,0,1,6.174,13.615,67.485,67.485,0,0,1-.95,8.391q-3.641,24.064-3.641,28.022,0,7.283,4.908,7.283,10.766,0,16.307-22.481,5.383,5.7,6.491,9.024-8.391,27.864-29.13,27.864-9.816,0-14.565-6.016A20.147,20.147,0,0,1,526.273,158.25ZM599.1,65.793q0,.95-4.275,34.038H618.1v12.19H593.241l-.475,3.958q18.523,15.515,18.523,33.88,0,14.407-7.362,20.74a26.166,26.166,0,0,1-17.652,6.333q-10.291,0-15.04-5.462a19.455,19.455,0,0,1-4.75-13.22,25.112,25.112,0,0,1,.317-3.8l4.908-42.113-.633-.317H558.253q-.158-1.583-.158-5.145a18.464,18.464,0,0,1,1.425-7.045h13.615L578.2,56.768a25.465,25.465,0,0,1,8.866-1.267Q599.1,55.5,599.1,65.793Zm1.583,83.908q0-10.924-9.5-21.531-2.85,23.589-2.85,27.231,0,7.124,4.591,7.124a6.611,6.611,0,0,0,5.541-3.087Q600.682,156.35,600.682,149.7Z" transform="translate(1.903 -40.352)" fill="url(#a)"/></g></svg>