<svg xmlns="http://www.w3.org/2000/svg" xmlns:xlink="http://www.w3.org/1999/xlink" width="300" height="300" viewBox="0 0 300 300"><defs><clipPath id="b"><rect width="300" height="300"/></clipPath></defs><g id="a" clip-path="url(#b)"><path d="M-1475.286,278.444a17.375,17.375,0,0,1-17.375-17.375V80.375A17.375,17.375,0,0,1-1475.286,63h196.911A17.375,17.375,0,0,1-1261,80.375V261.069a17.375,17.375,0,0,1-17.374,17.375ZM-1561,91.958A28.957,28.957,0,0,1-1532.043,63a28.958,28.958,0,0,1,28.958,28.958,28.958,28.958,0,0,1-28.958,28.958A28.957,28.957,0,0,1-1561,91.958Z" transform="translate(1561 -20.72)" fill="#fff" opacity="0.5"/><path d="M-1517.563,209.525v-2.317h231.66v2.317Zm0-48.649V158.56h231.66v2.316Zm11.235-4.634a8.918,8.918,0,0,1-8.918-8.918V123.463a8.919,8.919,0,0,1,8.918-8.919h209.189a8.92,8.92,0,0,1,8.919,8.919v23.861a8.919,8.919,0,0,1-8.919,8.918Zm-11.235-44.015v-2.316h231.66v2.316ZM-1561,94.854a4.054,4.054,0,0,1,4.054-4.054,4.054,4.054,0,0,1,4.054,4.054,4.054,4.054,0,0,1-4.054,4.054A4.054,4.054,0,0,1-1561,94.854Zm0-13.9a4.054,4.054,0,0,1,4.054-4.053,4.054,4.054,0,0,1,4.054,4.053,4.054,4.054,0,0,1-4.054,4.054A4.054,4.054,0,0,1-1561,80.953Zm0-13.9A4.054,4.054,0,0,1-1556.945,63a4.054,4.054,0,0,1,4.054,4.054,4.054,4.054,0,0,1-4.054,4.054A4.054,4.054,0,0,1-1561,67.054Z" transform="translate(1585.903 -9.716)" fill="#fff" opacity="0.5"/></g></svg>