<svg xmlns="http://www.w3.org/2000/svg" xmlns:xlink="http://www.w3.org/1999/xlink" width="300" height="300" viewBox="0 0 300 300"><defs><clipPath id="b"><rect width="300" height="300"/></clipPath></defs><g id="a" clip-path="url(#b)"><path d="M-1781,363a151.106,151.106,0,0,1-30.23-3.047,149.245,149.245,0,0,1-28.156-8.74,150.017,150.017,0,0,1-25.48-13.83,151.079,151.079,0,0,1-22.2-18.316,151.086,151.086,0,0,1-18.317-22.2,150.026,150.026,0,0,1-13.83-25.48,149.251,149.251,0,0,1-8.74-28.156A151.106,151.106,0,0,1-1931,213a151.109,151.109,0,0,1,3.047-30.23,149.254,149.254,0,0,1,8.74-28.157,150.031,150.031,0,0,1,13.83-25.48,151.08,151.08,0,0,1,18.317-22.2,151.073,151.073,0,0,1,22.2-18.316,150.012,150.012,0,0,1,25.48-13.83,149.245,149.245,0,0,1,28.156-8.74A151.106,151.106,0,0,1-1781,63a151.11,151.11,0,0,1,30.23,3.047,149.243,149.243,0,0,1,28.157,8.74,150.014,150.014,0,0,1,25.48,13.83,151.076,151.076,0,0,1,22.2,18.316,151.07,151.07,0,0,1,18.316,22.2,150.013,150.013,0,0,1,13.83,25.48,149.241,149.241,0,0,1,8.74,28.157A151.1,151.1,0,0,1-1631,213a151.1,151.1,0,0,1-3.047,30.23,149.243,149.243,0,0,1-8.74,28.156,150.017,150.017,0,0,1-13.83,25.48,151.069,151.069,0,0,1-18.316,22.2,151.08,151.08,0,0,1-22.2,18.316,150.021,150.021,0,0,1-25.48,13.83,149.251,149.251,0,0,1-28.157,8.74A151.11,151.11,0,0,1-1781,363Zm-50-94a49.615,49.615,0,0,0-28.171,8.7,50.281,50.281,0,0,0-10.677,9.864,50.554,50.554,0,0,0-7.484,12.635,131.348,131.348,0,0,0,19.728,17.771,130.341,130.341,0,0,0,23.054,13.479,129.2,129.2,0,0,0,25.747,8.554A130.375,130.375,0,0,0-1781,343a130.413,130.413,0,0,0,27.814-2.994,129.24,129.24,0,0,0,25.755-8.56,130.358,130.358,0,0,0,23.061-13.489,131.289,131.289,0,0,0,19.731-17.781,49.383,49.383,0,0,0-7.384-12.551,50.2,50.2,0,0,0-10.664-9.863A49.833,49.833,0,0,0-1731,269h-21.523A67.749,67.749,0,0,1-1781,275.25a68.027,68.027,0,0,1-28.477-6.25Zm50-125a55.868,55.868,0,0,0-21.89,4.422,56.089,56.089,0,0,0-17.88,12.058,56.069,56.069,0,0,0-12.057,17.88,55.854,55.854,0,0,0-4.423,21.89,55.854,55.854,0,0,0,4.423,21.89,56.071,56.071,0,0,0,12.057,17.88,56.09,56.09,0,0,0,17.88,12.058A55.868,55.868,0,0,0-1781,256.5a55.87,55.87,0,0,0,21.891-4.422,56.092,56.092,0,0,0,17.88-12.058,56.09,56.09,0,0,0,12.057-17.88,55.867,55.867,0,0,0,4.422-21.89,55.867,55.867,0,0,0-4.422-21.89,56.09,56.09,0,0,0-12.057-17.88,56.089,56.089,0,0,0-17.88-12.058A55.87,55.87,0,0,0-1781,144Z" transform="translate(1931 -63)" fill="#fff" opacity="0.5"/></g></svg>