<svg xmlns="http://www.w3.org/2000/svg" xmlns:xlink="http://www.w3.org/1999/xlink" width="300" height="300" viewBox="0 0 300 300"><defs><clipPath id="b"><rect width="300" height="300"/></clipPath></defs><g id="a" clip-path="url(#b)"><path d="M23,0H277a23,23,0,0,1,23,23V77a23,23,0,0,1-23,23H23A23,23,0,0,1,0,77V23A23,23,0,0,1,23,0Z" transform="translate(0 76.425)" fill="#fff" opacity="0.5"/><path d="M82.513,44.2V61.885a7.364,7.364,0,0,1-.2,1.687L76.423,88.62a7.367,7.367,0,0,1-7.171,5.68H30.942a7.368,7.368,0,0,1-5.958-3.034L1.41,58.851a7.367,7.367,0,1,1,11.916-8.666L19.155,58.2V7.367a7.367,7.367,0,1,1,14.734,0V44.2h1.473V36.836a7.367,7.367,0,0,1,14.734,0V44.2H51.57v-4.42a7.367,7.367,0,1,1,14.734,0V44.2h1.473a7.367,7.367,0,0,1,14.734,0ZM35.363,58.938H33.889V76.619h1.473Zm16.208,0H50.1V76.619H51.57Zm16.208,0H66.3V76.619h1.473Z" transform="translate(108.744 129.275)" fill="#fff"/></g></svg>