<svg xmlns="http://www.w3.org/2000/svg" xmlns:xlink="http://www.w3.org/1999/xlink" width="300" height="300" viewBox="0 0 300 300"><defs><clipPath id="b"><rect width="300" height="300"/></clipPath></defs><g id="a" clip-path="url(#b)"><path d="M50,0H250a50,50,0,0,1,50,50V250a50,50,0,0,1-50,50H50A50,50,0,0,1,0,250V50A50,50,0,0,1,50,0Z" fill="#fff" opacity="0.5"/><path d="M74.98,165.968,3.233,94.221a11.038,11.038,0,0,1,0-15.61L18.843,63a11.038,11.038,0,0,1,15.61,0l48.332,48.332L186.308,7.81a11.038,11.038,0,0,1,15.61,0l15.61,15.61a11.038,11.038,0,0,1,0,15.61L90.59,165.968A11.038,11.038,0,0,1,74.98,165.968Z" transform="translate(39.62 63.111)" fill="#fff"/></g></svg>