<svg xmlns="http://www.w3.org/2000/svg" xmlns:xlink="http://www.w3.org/1999/xlink" width="300" height="300" viewBox="0 0 300 300"><defs><clipPath id="b"><rect width="300" height="300"/></clipPath></defs><g id="a" clip-path="url(#b)"><path d="M25,0H175a25,25,0,0,1,25,25V275a25,25,0,0,1-25,25H25A25,25,0,0,1,0,275V25A25,25,0,0,1,25,0Z" transform="translate(50)" fill="#fff" opacity="0.5"/><path d="M0,0H200V25a25,25,0,0,1-25,25H25A25,25,0,0,1,0,25Z" transform="translate(50 250)" fill="#fff"/></g></svg>